<?xml version="1.0" standalone="no"?>
<!DOCTYPE svg PUBLIC "-//W3C//DTD SVG 20010904//EN"
 "http://www.w3.org/TR/2001/REC-SVG-20010904/DTD/svg10.dtd">
<svg version="1.0" xmlns="http://www.w3.org/2000/svg"
 width="512.000000pt" height="512.000000pt" viewBox="0 0 512.000000 512.000000"
 preserveAspectRatio="xMidYMid meet">
<metadata>
Created by potrace 1.14, written by Peter Selinger 2001-2017
</metadata>
<g transform="translate(0.000000,512.000000) scale(0.100000,-0.100000)"
fill="#000000" stroke="none">
<path d="M2379 5116 c-2 -2 -38 -6 -79 -10 -64 -6 -213 -30 -315 -51 -58 -12
-202 -55 -291 -86 -396 -139 -789 -409 -1064 -729 -64 -74 -76 -89 -143 -180
-235 -316 -413 -756 -462 -1140 -4 -30 -9 -68 -12 -85 -2 -16 -6 -126 -8 -242
l-3 -213 22 0 c12 0 26 4 32 8 21 18 232 74 329 88 28 3 58 8 69 10 10 2 41 6
70 9 28 3 69 8 91 11 22 3 378 7 792 9 l751 2 -14 -40 c-35 -98 -110 -189
-208 -252 -130 -83 -260 -112 -512 -115 -212 -1 -258 -4 -342 -20 -238 -43
-427 -159 -490 -299 -47 -106 -38 -264 21 -359 90 -141 282 -255 545 -321 152
-39 208 -45 392 -46 171 0 276 9 345 29 25 8 45 12 45 10 0 -6 174 58 223 82
287 146 425 361 425 665 0 64 -3 134 -8 155 -5 21 -11 50 -13 64 -22 122 -96
351 -187 580 -176 444 -229 706 -191 942 43 266 238 489 526 603 39 15 79 31
90 36 22 9 163 48 198 55 12 2 46 9 76 15 30 6 64 12 75 14 12 1 39 5 61 8
144 22 292 30 615 31 288 2 384 -2 525 -19 l60 -8 -75 73 c-134 129 -305 260
-475 362 -65 39 -298 158 -310 158 -4 0 -21 6 -38 14 -114 52 -385 128 -537
150 -8 2 -40 6 -70 11 -30 4 -64 9 -75 12 -23 5 -451 14 -456 9z"/>
<path d="M3446 3894 c-157 -30 -240 -119 -253 -273 -10 -119 39 -290 207 -731
121 -315 194 -547 215 -680 4 -25 9 -54 11 -65 43 -229 3 -493 -106 -692 -94
-170 -267 -335 -475 -454 -208 -118 -520 -228 -780 -274 -76 -14 -143 -25
-180 -30 -22 -3 -51 -8 -65 -10 -14 -3 -61 -7 -105 -10 -44 -3 -105 -8 -135
-11 -76 -6 -430 -6 -515 1 -144 11 -355 34 -364 39 -3 2 -32 7 -65 11 -67 7
-70 14 39 -81 279 -243 610 -425 963 -528 265 -78 465 -105 762 -101 118 2
226 6 240 9 14 3 45 8 70 11 25 3 81 12 125 21 44 8 91 18 105 20 110 21 368
110 505 175 656 311 1151 881 1364 1574 42 137 76 292 86 395 4 30 8 66 11 80
12 57 11 440 -2 540 -20 166 -21 169 -59 344 -3 10 -12 44 -21 75 -9 31 -17
63 -19 71 -4 17 -46 133 -51 139 -1 2 -29 -23 -61 -56 -104 -106 -52 -98 -580
-98 -255 -1 -463 2 -463 6 0 4 65 136 145 293 80 158 145 290 145 294 0 13
-621 9 -694 -4z"/>
</g>
</svg>
